<svg xmlns="http://www.w3.org/2000/svg" fill="white" width="32px" height="32px"  viewBox="0 0 24 24"><g>
                <path d="M17.419,14.763H7.28c-1.479,0-2.866-0.795-3.618-2.075c-0.785-1.337-0.77-2.94,0.044-4.4
                    C4.368,7.1,5.666,6.366,7.067,6.366c0.002,0,0.004,0,0.006,0C7.648,4.431,9.454,3.064,11.5,3.064c2.072,0,3.85,1.341,4.426,3.297
                    c0.813,0.016,1.701,0.403,2.112,1.455c1.652,0.295,2.877,1.74,2.877,3.44C20.916,13.19,19.347,14.763,17.419,14.763z M7.115,7.371
                    c-1.098,0-2.052,0.536-2.536,1.403c-0.636,1.143-0.656,2.385-0.055,3.408c0.573,0.976,1.629,1.581,2.755,1.581h10.14
                    c1.376,0,2.497-1.125,2.497-2.507c0-1.263-0.946-2.328-2.201-2.479C17.45,8.744,17.232,8.56,17.153,8.31
                    c-0.286-0.919-1.028-0.982-1.452-0.94c-0.308,0.042-0.602-0.176-0.672-0.485c-0.371-1.66-1.823-2.82-3.529-2.82
                    c-1.701,0-3.189,1.204-3.539,2.863L7.87,7.357L7.354,7.379C7.274,7.374,7.194,7.371,7.115,7.371z M6.984,6.717
                    c0,0.002-0.001,0.005-0.002,0.007C6.983,6.722,6.983,6.719,6.984,6.717z M16.006,6.666L16.006,6.666L16.006,6.666z M7.343,6.376
                    c0.001,0,0.002,0,0.004,0C7.346,6.376,7.344,6.376,7.343,6.376z"/>
                <path d="M5.502,16.266c0,0.292,0,0.584,0,0.876c0,0.041,0,0.083,0,0.124c0,0.128,0.056,0.263,0.146,0.354
                    c0.087,0.087,0.229,0.152,0.354,0.146c0.129-0.006,0.263-0.048,0.354-0.146c0.09-0.098,0.146-0.218,0.146-0.354
                    c0-0.292,0-0.584,0-0.876c0-0.041,0-0.083,0-0.124c0-0.128-0.056-0.263-0.146-0.354c-0.087-0.087-0.229-0.152-0.354-0.146
                    c-0.129,0.006-0.263,0.048-0.354,0.146C5.559,16.011,5.502,16.131,5.502,16.266L5.502,16.266z"/>
                <path d="M11.501,16.266c0,0.292,0,0.584,0,0.876c0,0.041,0,0.083,0,0.124c0,0.128,0.056,0.263,0.146,0.354
                    c0.087,0.087,0.229,0.152,0.354,0.146c0.129-0.006,0.263-0.048,0.354-0.146c0.09-0.098,0.146-0.218,0.146-0.354
                    c0-0.292,0-0.584,0-0.876c0-0.041,0-0.083,0-0.124c0-0.128-0.056-0.263-0.146-0.354c-0.087-0.087-0.229-0.152-0.354-0.146
                    c-0.129,0.006-0.263,0.048-0.354,0.146C11.558,16.011,11.501,16.131,11.501,16.266L11.501,16.266z"/>
                <path d="M8.502,19.436c0,0.292,0,0.584,0,0.876c0,0.041,0,0.083,0,0.124c0,0.128,0.056,0.263,0.146,0.354
                    c0.087,0.087,0.229,0.152,0.354,0.146c0.129-0.006,0.263-0.048,0.354-0.146c0.09-0.098,0.146-0.218,0.146-0.354
                    c0-0.292,0-0.584,0-0.876c0-0.041,0-0.083,0-0.124c0-0.128-0.056-0.263-0.146-0.354c-0.087-0.087-0.229-0.152-0.354-0.146
                    c-0.129,0.006-0.263,0.048-0.354,0.146C8.559,19.18,8.502,19.3,8.502,19.436L8.502,19.436z"/>
                <path d="M14.502,19.436c0,0.292,0,0.584,0,0.876c0,0.041,0,0.083,0,0.124c0,0.128,0.056,0.263,0.146,0.354
                    c0.087,0.087,0.229,0.152,0.354,0.146c0.129-0.006,0.263-0.048,0.354-0.146c0.09-0.098,0.146-0.218,0.146-0.354
                    c0-0.292,0-0.584,0-0.876c0-0.041,0-0.083,0-0.124c0-0.128-0.056-0.263-0.146-0.354c-0.087-0.087-0.229-0.152-0.354-0.146
                    c-0.129,0.006-0.263,0.048-0.354,0.146C14.559,19.18,14.502,19.3,14.502,19.436L14.502,19.436z"/>
                <path d="M17.502,16.266c0,0.292,0,0.584,0,0.876c0,0.041,0,0.083,0,0.124c0,0.128,0.056,0.263,0.146,0.354
                    c0.087,0.087,0.229,0.152,0.354,0.146c0.129-0.006,0.263-0.048,0.354-0.146c0.09-0.098,0.146-0.218,0.146-0.354
                    c0-0.292,0-0.584,0-0.876c0-0.041,0-0.083,0-0.124c0-0.128-0.056-0.263-0.146-0.354c-0.087-0.087-0.229-0.152-0.354-0.146
                    c-0.129,0.006-0.263,0.048-0.354,0.146C17.559,16.011,17.502,16.131,17.502,16.266L17.502,16.266z"/>
            </g></svg>